<svg width="75" height="76" viewBox="0 0 75 76" fill="none" xmlns="http://www.w3.org/2000/svg">
<path d="M47.2801 52.342C26.9082 61.8292 13.1668 59.2595 8.8426 56.7892C4.99853 55.3564 -2.20778 65.6833 2.59689 70.1305C16.5305 79.5187 43.9169 74.0833 55.9287 65.6833C67.941 57.2833 67.785 50.5964 65.3827 45.1611C63.4609 41.7023 57.8506 39.0011 49.6828 38.0128C43.1482 37.2222 44.0771 36.6951 45.3586 36.5305C45.999 36.3658 49.3942 35.0481 57.8506 31.0952C68.4214 26.1541 72.9796 21.6535 73.7061 18.7423C74.5114 15.5141 74.667 6.88343 60.2525 2.93051C27.1004 -3.98715 6.44026 19.7305 8.8426 26.154C11.245 32.5775 19.4129 32.5775 22.2957 32.5775C25.1785 32.5775 31.4246 30.1069 30.4637 28.6246C29.5027 27.1423 28.5418 28.1305 25.1785 28.6246C22.4879 29.0199 24.0574 27.1422 25.1785 26.154C39.1121 19.7304 52.5651 18.7423 60.2525 18.7423C66.4025 18.7423 65.0575 20.7187 63.6161 21.707C60.7329 25.1658 46.3192 32.0834 43.9169 32.5775C41.995 32.9729 42.1549 31.754 42.4755 31.0952C43.2761 29.9422 44.8778 27.3399 44.8778 26.154C45.6464 22.5963 42.3152 24.6716 40.5536 26.154L32.866 36.0363C31.4246 36.6951 28.1574 38.0128 26.6199 38.0128C25.0824 38.0128 25.0184 39.9893 25.1785 40.9775L26.6199 43.4479L18.452 55.8011C19.6051 58.5681 22.4559 56.9541 23.7371 55.8011C27.9543 52.006 30.4437 43.5847 35.2683 42.4598C42.5332 40.9775 49.7479 41.7801 52.8678 43.5847C57.9481 46.5233 54.0065 49.2097 47.2801 52.342Z" fill="#4A9B2C" stroke="#F3F1EE" stroke-width="1.55993"/>
</svg>